<?xml version="1.0" encoding="UTF-8"?>
<!DOCTYPE svg PUBLIC "-//W3C//DTD SVG 1.1//EN" "http://www.w3.org/Graphics/SVG/1.1/DTD/svg11.dtd">
<svg xmlns="http://www.w3.org/2000/svg" version="1.1" width="338px" height="136px" style="shape-rendering:geometricPrecision; text-rendering:geometricPrecision; image-rendering:optimizeQuality; fill-rule:evenodd; clip-rule:evenodd" xmlns:xlink="http://www.w3.org/1999/xlink">
<g><path style="opacity:1" fill="#fefefd" d="M -0.5,-0.5 C 112.167,-0.5 224.833,-0.5 337.5,-0.5C 337.5,44.8333 337.5,90.1667 337.5,135.5C 224.833,135.5 112.167,135.5 -0.5,135.5C -0.5,90.1667 -0.5,44.8333 -0.5,-0.5 Z"/></g>
<g><path style="opacity:1" fill="#137b53" d="M 45.5,34.5 C 57.5046,34.3335 69.5046,34.5001 81.5,35C 82.3333,35.8333 83.1667,36.6667 84,37.5C 84.6667,40.8333 84.6667,44.1667 84,47.5C 83.6924,48.3081 83.1924,48.9747 82.5,49.5C 74.5559,50.4685 66.5559,50.8019 58.5,50.5C 58.5,53.1667 58.5,55.8333 58.5,58.5C 64.8421,58.3338 71.1754,58.5005 77.5,59C 81.4322,63.7374 81.4322,68.4041 77.5,73C 71.1754,73.4995 64.8421,73.6662 58.5,73.5C 58.6662,79.5092 58.4995,85.5092 58,91.5C 55.9589,93.9741 53.2923,94.9741 50,94.5C 47.3291,94.7258 44.9958,94.0591 43,92.5C 42.3333,73.8333 42.3333,55.1667 43,36.5C 43.9947,35.9341 44.828,35.2674 45.5,34.5 Z"/></g>
<g><path style="opacity:1" fill="#5da18a" d="M 198.5,35.5 C 198.83,41.8682 198.496,48.2015 197.5,54.5C 196.893,54.3764 196.56,54.0431 196.5,53.5C 197.167,47.5 197.833,41.5 198.5,35.5 Z"/></g>
<g><path style="opacity:1" fill="#f7762f" d="M 279.5,50.5 C 303.008,50.5137 311.508,61.847 305,84.5C 298.131,94.1788 288.965,97.3455 277.5,94C 265.558,87.5182 261.392,77.6849 265,64.5C 267.871,57.6746 272.704,53.0079 279.5,50.5 Z"/></g>
<g><path style="opacity:1" fill="#147a53" d="M 196.5,53.5 C 196.56,54.0431 196.893,54.3764 197.5,54.5C 198.496,48.2015 198.83,41.8682 198.5,35.5C 199.794,32.2644 202.294,30.9311 206,31.5C 208.981,31.0815 211.314,32.0815 213,34.5C 213.821,53.8769 213.654,73.2102 212.5,92.5C 211.975,93.1924 211.308,93.6924 210.5,94C 207.167,94.6667 203.833,94.6667 200.5,94C 199.937,89.8855 198.604,89.5522 196.5,93C 183.469,97.399 174.969,92.899 171,79.5C 168.026,66.7263 172.192,57.2263 183.5,51C 188.347,49.8438 192.68,50.6771 196.5,53.5 Z"/></g>
<g><path style="opacity:1" fill="#137953" d="M 97.5,50.5 C 111.731,48.9455 121.064,54.9455 125.5,68.5C 130.485,53.1072 140.818,47.6072 156.5,52C 167.951,58.7524 171.785,68.5857 168,81.5C 160.546,95.0026 149.712,98.5026 135.5,92C 130.627,87.7508 127.127,82.5842 125,76.5C 120.605,91.5697 110.772,97.403 95.5,94C 84.2204,88.2731 79.7204,79.1065 82,66.5C 84.685,58.6498 89.8517,53.3165 97.5,50.5 Z"/></g>
<g><path style="opacity:1" fill="#f6faf8" d="M 100.5,65.5 C 107.632,65.8021 110.465,69.4688 109,76.5C 103,82.2595 98.8337,81.0929 96.5,73C 96.9274,69.9766 98.2607,67.4766 100.5,65.5 Z"/></g>
<g><path style="opacity:1" fill="#f2f8f6" d="M 145.5,65.5 C 153.31,66.1136 155.81,70.1136 153,77.5C 146.794,82.3168 142.961,80.8168 141.5,73C 141.43,69.6335 142.763,67.1335 145.5,65.5 Z"/></g>
<g><path style="opacity:1" fill="#f2f7f5" d="M 190.5,65.5 C 195.203,65.5362 197.536,67.8695 197.5,72.5C 196.736,80.3009 193.236,81.9676 187,77.5C 184.255,72.2483 185.422,68.2483 190.5,65.5 Z"/></g>
<g><path style="opacity:1" fill="#fff7f3" d="M 283.5,65.5 C 291.301,66.0936 293.801,70.0936 291,77.5C 284.592,82.3073 280.758,80.6407 279.5,72.5C 279.577,69.3346 280.91,67.0013 283.5,65.5 Z"/></g>
<g><path style="opacity:1" fill="#f77630" d="M 258.5,59.5 C 259.069,63.7068 259.736,67.8735 260.5,72C 260.042,80.0411 260.042,88.2077 260.5,96.5C 258.698,107.804 252.198,114.804 241,117.5C 240.333,116.833 239.667,116.167 239,115.5C 234.642,116.492 230.642,116.492 227,115.5C 225.807,113.395 224.14,111.728 222,110.5C 221.517,109.552 221.351,108.552 221.5,107.5C 222.172,104.658 223.506,102.158 225.5,100C 228.255,100.335 230.922,101.335 233.5,103C 242.662,105.161 246.829,101.661 246,92.5C 234.383,96.514 225.383,93.1807 219,82.5C 211.283,66.3945 213.449,51.8945 225.5,39C 227.888,37.1395 230.554,35.8061 233.5,35C 244.514,32.2482 253.847,34.9149 261.5,43C 258.167,46.3333 254.833,49.6667 251.5,53C 235.651,47.4918 229.151,53.3251 232,70.5C 233.863,78.3472 238.363,80.6805 245.5,77.5C 246.452,75.9547 246.785,74.288 246.5,72.5C 237.992,73.4765 235.158,69.8098 238,61.5C 238.5,61 239,60.5 239.5,60C 245.825,59.5005 252.158,59.3338 258.5,59.5 Z"/></g>
<g><path style="opacity:1" fill="#f57c39" d="M 258.5,59.5 C 260.017,59.5106 261.184,60.1772 262,61.5C 262.667,73.8333 262.667,86.1667 262,98.5C 257.522,115.33 246.689,121.83 229.5,118C 225.148,116.477 221.481,113.977 218.5,110.5C 219.188,109.145 220.188,108.145 221.5,107.5C 221.351,108.552 221.517,109.552 222,110.5C 224.14,111.728 225.807,113.395 227,115.5C 230.642,116.492 234.642,116.492 239,115.5C 239.667,116.167 240.333,116.833 241,117.5C 252.198,114.804 258.698,107.804 260.5,96.5C 260.042,88.2077 260.042,80.0411 260.5,72C 259.736,67.8735 259.069,63.7068 258.5,59.5 Z"/></g>
<g><path style="opacity:1" fill="#8c8c8e" d="M 108.5,103.5 C 110.048,103.821 110.715,104.821 110.5,106.5C 107.752,106.598 107.086,105.598 108.5,103.5 Z"/></g>
<g><path style="opacity:1" fill="#433e44" d="M 125.5,104.5 C 127.337,104.639 127.67,105.306 126.5,106.5C 125.702,106.043 125.369,105.376 125.5,104.5 Z"/></g>
<g><path style="opacity:1" fill="#333134" d="M 149.5,104.5 C 151.337,104.639 151.67,105.306 150.5,106.5C 149.702,106.043 149.369,105.376 149.5,104.5 Z"/></g>
<g><path style="opacity:1" fill="#716c74" d="M 59.5,104.5 C 58.1667,108.833 58.1667,113.167 59.5,117.5C 59.44,118.043 59.1067,118.376 58.5,118.5C 57.1667,113.5 57.1667,108.5 58.5,103.5C 59.1067,103.624 59.44,103.957 59.5,104.5 Z"/></g>
<g><path style="opacity:1" fill="#3d3b44" d="M 117.5,109.5 C 116.5,109.5 115.5,109.5 114.5,109.5C 114.205,111.735 114.539,113.735 115.5,115.5C 116.091,116.151 116.757,116.818 117.5,117.5C 115.76,118.809 114.427,118.476 113.5,116.5C 113.868,113.467 113.202,110.8 111.5,108.5C 112.404,107.791 112.737,106.791 112.5,105.5C 113.5,105.5 114.5,105.5 115.5,105.5C 115.527,107.199 116.194,108.533 117.5,109.5 Z"/></g>
<g><path style="opacity:1" fill="#4f4a53" d="M 145.5,103.5 C 146.809,105.571 147.475,108.071 147.5,111C 147.167,113.5 146.833,116 146.5,118.5C 145.506,113.544 145.173,108.544 145.5,103.5 Z"/></g>
<g><path style="opacity:1" fill="#9c9b9e" d="M 155.5,108.5 C 154.521,111.625 154.187,114.958 154.5,118.5C 153.192,114.981 153.192,111.315 154.5,107.5C 155.107,107.624 155.44,107.957 155.5,108.5 Z"/></g>
<g><path style="opacity:1" fill="#9d9b9f" d="M 117.5,109.5 C 115.925,111.114 115.259,113.114 115.5,115.5C 115.259,113.114 115.925,111.114 117.5,109.5 Z"/></g>
<g><path style="opacity:1" fill="#9f9ea2" d="M 109.5,108.5 C 110.167,108.5 110.833,108.5 111.5,108.5C 113.202,110.8 113.868,113.467 113.5,116.5C 112.835,114.631 112.169,112.631 111.5,110.5C 110.832,113.306 110.166,115.972 109.5,118.5C 109.5,115.167 109.5,111.833 109.5,108.5 Z"/></g>
<g><path style="opacity:1" fill="#39353e" d="M 129.5,108.5 C 132.119,108.232 134.619,108.565 137,109.5C 137.821,112.554 137.655,115.554 136.5,118.5C 135.516,115.572 135.183,112.572 135.5,109.5C 134.178,109.33 133.011,109.663 132,110.5C 131.818,113.226 131.318,115.893 130.5,118.5C 129.513,115.232 129.18,111.898 129.5,108.5 Z"/></g>
<g><path style="opacity:1" fill="#3b3942" d="M 154.5,118.5 C 154.187,114.958 154.521,111.625 155.5,108.5C 155.435,108.938 155.601,109.272 156,109.5C 160.607,106.728 162.774,108.228 162.5,114C 162.167,115.5 161.833,117 161.5,118.5C 160.682,115.893 160.182,113.226 160,110.5C 159.282,109.549 158.449,109.383 157.5,110C 156.004,112.714 155.004,115.547 154.5,118.5 Z"/></g>
<g><path style="opacity:1" fill="#34323c" d="M 167.5,107.5 C 171.167,107.833 173.167,109.833 173.5,113.5C 171.076,113.192 168.743,113.526 166.5,114.5C 166.709,115.086 167.043,115.586 167.5,116C 169.313,115.954 170.979,116.12 172.5,116.5C 167.826,119.834 165.159,118.667 164.5,113C 164.685,110.624 165.685,108.791 167.5,107.5 Z"/></g>
<g><path style="opacity:1" fill="#d2d1d3" d="M 167.5,109.5 C 169.346,109.222 170.68,109.889 171.5,111.5C 169.833,112.833 168.167,112.833 166.5,111.5C 166.863,110.817 167.196,110.15 167.5,109.5 Z"/></g>
<g><path style="opacity:1" fill="#45424d" d="M 59.5,104.5 C 59.1091,107.838 60.2757,108.838 63,107.5C 65.9282,108.609 67.0949,110.776 66.5,114C 66.1667,115.5 65.8333,117 65.5,118.5C 64.6858,116.234 64.1858,113.9 64,111.5C 62.9505,110.483 61.7839,110.316 60.5,111C 59.5769,113.041 59.2436,115.208 59.5,117.5C 58.1667,113.167 58.1667,108.833 59.5,104.5 Z"/></g>
<g><path style="opacity:1" fill="#4e4c56" d="M 99.5,108.5 C 101.792,108.244 103.959,108.577 106,109.5C 106.821,112.554 106.655,115.554 105.5,118.5C 104.033,117.305 102.533,117.305 101,118.5C 98.7486,117.937 97.7486,116.603 98,114.5C 99.4196,112.578 101.253,111.245 103.5,110.5C 101.979,110.12 100.313,109.954 98.5,110C 99.056,109.617 99.3893,109.117 99.5,108.5 Z"/></g>
<g><path style="opacity:1" fill="#424049" d="M 42.5,108.5 C 44.4803,109.848 45.647,111.848 46,114.5C 47.128,112.655 47.628,110.655 47.5,108.5C 48.675,108.281 49.675,108.614 50.5,109.5C 51.9325,116.063 53.0992,116.063 54,109.5C 54.7175,108.549 55.5509,108.383 56.5,109C 55.6528,112.376 54.3194,115.543 52.5,118.5C 51.2393,116.547 50.0726,114.547 49,112.5C 48.5272,114.779 47.5272,116.779 46,118.5C 44.1425,115.428 42.9758,112.095 42.5,108.5 Z"/></g>
<g><path style="opacity:1" fill="#efeff0" d="M 100.5,113.5 C 103.957,113.667 104.29,114.667 101.5,116.5C 100.614,115.675 100.281,114.675 100.5,113.5 Z"/></g>
<g><path style="opacity:1" fill="#4d4c55" d="M 149.5,108.5 C 150.777,109.694 151.444,111.36 151.5,113.5C 151.167,115.167 150.833,116.833 150.5,118.5C 149.513,115.232 149.18,111.898 149.5,108.5 Z"/></g>
<g><path style="opacity:1" fill="#494a52" d="M 67.5,108.5 C 68.5,108.5 69.5,108.5 70.5,108.5C 71.0798,115.618 72.2465,115.951 74,109.5C 74.8928,108.289 75.7261,108.289 76.5,109.5C 75,113.167 73.5,116.833 72,120.5C 70.7592,122.421 69.2592,122.754 67.5,121.5C 69.2718,120.73 70.2718,119.397 70.5,117.5C 69.6917,114.408 68.6917,111.408 67.5,108.5 Z"/></g>
<g><path style="opacity:1" fill="#47424d" d="M 83.5,108.5 C 85.8251,109.655 86.9918,111.655 87,114.5C 88.128,112.655 88.628,110.655 88.5,108.5C 91.3455,108.809 92.8455,110.475 93,113.5C 94.0086,111.975 94.5086,110.308 94.5,108.5C 95.552,108.351 96.552,108.517 97.5,109C 96.59,112.323 95.2567,115.49 93.5,118.5C 92.0521,116.333 90.8854,114 90,111.5C 89.3811,114.032 88.3811,116.365 87,118.5C 84.9177,115.513 83.751,112.179 83.5,108.5 Z"/></g>
<g><path style="opacity:1" fill="#5f5c65" d="M 109.5,108.5 C 109.5,111.833 109.5,115.167 109.5,118.5C 108.223,117.306 107.556,115.64 107.5,113.5C 107.556,111.36 108.223,109.694 109.5,108.5 Z"/></g>
<g><path style="opacity:1" fill="#48434b" d="M 125.5,108.5 C 126.777,109.694 127.444,111.36 127.5,113.5C 127.167,115.167 126.833,116.833 126.5,118.5C 125.513,115.232 125.18,111.898 125.5,108.5 Z"/></g>
</svg>
